<svg width="24" height="24" viewBox="0 0 24 24" fill="none" xmlns="http://www.w3.org/2000/svg">
<path d="M19.9158 11.4054C19.8335 10.6956 19.494 10.037 18.9578 9.54692C18.4215 9.05679 17.7233 8.76687 16.9871 8.72862V8.51998C16.9878 7.92633 16.8673 7.33847 16.6327 6.79003C16.3981 6.2416 16.054 5.74344 15.62 5.32429C15.1871 4.90387 14.6725 4.57049 14.1062 4.34323C13.5398 4.11596 12.9327 3.99931 12.3197 4.00001C11.0822 4.00044 9.89557 4.47687 9.02054 5.3246C8.14551 6.17233 7.65375 7.32202 7.65329 8.52089V8.73186C6.9269 8.78187 6.24141 9.0769 5.7162 9.56561C5.191 10.0543 4.85928 10.7059 4.77842 11.407L4 18.2769C4.00385 19.198 4.38484 20.08 5.05938 20.7292C5.73393 21.3783 6.64703 21.7415 7.59781 21.7391H17.098C18.0488 21.7415 18.9617 21.3783 19.6363 20.7292C20.3108 20.08 20.6918 19.198 20.6957 18.2769L19.9158 11.4054ZM9.02367 8.52827C9.02356 8.10897 9.10863 7.69375 9.27418 7.30633C9.43973 6.91891 9.68257 6.56693 9.98857 6.2704C10.2946 5.97387 10.6577 5.73858 11.0575 5.5781C11.4574 5.41761 11.886 5.3351 12.3188 5.3351C12.7517 5.3347 13.1804 5.41709 13.5803 5.57759C13.9803 5.73809 14.3437 5.97345 14.6495 6.2703C14.9561 6.5665 15.1991 6.91845 15.3649 7.30593C15.5308 7.6934 15.616 8.10881 15.6157 8.52827V8.72196H9.02367V8.52827ZM9.67382 13.2247C9.56507 13.2248 9.45727 13.2041 9.35678 13.1638C9.25628 13.1236 9.16502 13.0644 9.08812 12.9899C9.01123 12.9155 8.95031 12.827 8.90874 12.7297C8.86718 12.6323 8.84585 12.528 8.84596 12.4226C8.84585 12.3173 8.86718 12.2129 8.90874 12.1156C8.95031 12.0182 9.01123 11.9297 9.08812 11.8552C9.16502 11.7807 9.25628 11.7217 9.35678 11.6814C9.45727 11.6412 9.56507 11.6205 9.67382 11.6206C9.78272 11.6204 9.89059 11.6409 9.99128 11.6811C10.092 11.7213 10.1834 11.7803 10.2606 11.8548C10.3377 11.9293 10.399 12.0178 10.4408 12.1152C10.4826 12.2126 10.5041 12.3171 10.5042 12.4226C10.5041 12.5281 10.4826 12.6326 10.4408 12.73C10.399 12.8274 10.3377 12.9159 10.2606 12.9904C10.1834 13.0648 10.092 13.1238 9.99128 13.164C9.89059 13.2042 9.78272 13.2249 9.67382 13.2247ZM15.0237 13.2247C14.9148 13.2249 14.8069 13.2042 14.7063 13.164C14.6056 13.1238 14.5141 13.0648 14.437 12.9904C14.3598 12.9159 14.2986 12.8274 14.2568 12.73C14.215 12.6326 14.1935 12.5281 14.1933 12.4226C14.1935 12.3171 14.215 12.2126 14.2568 12.1152C14.2986 12.0178 14.3598 11.9293 14.437 11.8548C14.5141 11.7803 14.6056 11.7213 14.7063 11.6811C14.8069 11.6409 14.9148 11.6204 15.0237 11.6206C15.1325 11.6205 15.2401 11.6412 15.3405 11.6814C15.441 11.7217 15.5325 11.7807 15.6094 11.8552C15.6863 11.9297 15.7472 12.0182 15.7888 12.1156C15.8303 12.2129 15.8517 12.3173 15.8516 12.4226C15.8517 12.528 15.8303 12.6323 15.7888 12.7297C15.7472 12.827 15.6863 12.9155 15.6094 12.9899C15.5325 13.0644 15.441 13.1236 15.3405 13.1638C15.2401 13.2041 15.1325 13.2248 15.0237 13.2247Z" fill="#D5D5D9"/>
<path d="M11.1304 12.5652C11.1304 13.4297 10.4296 14.1305 9.56517 14.1305C8.70073 14.1305 7.99996 13.4297 7.99996 12.5652C7.99996 11.7008 8.70073 11 9.56517 11C10.4296 11 11.1304 11.7008 11.1304 12.5652Z" fill="#9796A1"/>
<circle cx="14.5652" cy="12.5652" r="1.56522" fill="#9796A1"/>
</svg>
